<svg width="720" height="760" viewBox="0 0 720 760" fill="none" xmlns="http://www.w3.org/2000/svg">
  <rect width="720" height="760" rx="44" fill="#FFF8F1"/>
  <circle cx="580" cy="138" r="82" fill="#FFE4D3"/>
  <circle cx="124" cy="610" r="90" fill="#E1F0E3"/>
  <rect x="94" y="132" width="252" height="326" rx="28" fill="#FFFDF9" stroke="#EADFD3" stroke-width="4"/>
  <circle cx="220" cy="298" r="92" fill="#D86F43"/>
  <path d="M140 298C140 253.817 175.817 218 220 218C264.183 218 300 253.817 300 298C300 342.183 264.183 378 220 378C175.817 378 140 342.183 140 298Z" fill="#C65E35"/>
  <circle cx="220" cy="298" r="58" fill="#F7D8C4"/>
  <path d="M188 266C200 256 200 240 188 228" stroke="#FFF8F1" stroke-width="10" stroke-linecap="round"/>
  <path d="M220 256C232 246 232 230 220 218" stroke="#FFF8F1" stroke-width="10" stroke-linecap="round"/>
  <path d="M252 266C264 256 264 240 252 228" stroke="#FFF8F1" stroke-width="10" stroke-linecap="round"/>
  <rect x="388" y="192" width="240" height="180" rx="26" fill="#FFFDF9" stroke="#EADFD3" stroke-width="4"/>
  <rect x="420" y="224" width="176" height="116" rx="58" fill="#FFF1E6"/>
  <circle cx="462" cy="282" r="24" fill="#D86F43"/>
  <circle cx="520" cy="282" r="24" fill="#47654A"/>
  <circle cx="578" cy="282" r="24" fill="#F1B792"/>
  <rect x="144" y="502" width="432" height="144" rx="34" fill="#FFFDF9" stroke="#EADFD3" stroke-width="4"/>
  <rect x="182" y="548" width="220" height="28" rx="14" fill="#231815" opacity="0.12"/>
  <rect x="182" y="592" width="152" height="24" rx="12" fill="#231815" opacity="0.08"/>
  <rect x="440" y="536" width="96" height="96" rx="28" fill="#FFE4D3"/>
  <path d="M468 584C468 569.641 479.641 558 494 558H536C536 572.359 524.359 584 510 584H468Z" fill="#D86F43"/>
  <path d="M532 560H544C551.732 560 558 566.268 558 574C558 581.732 551.732 588 544 588H536" stroke="#231815" stroke-width="6" stroke-linecap="round"/>
</svg>
